<?xml version="1.0" encoding="utf-8"?>
<!-- Generator: Adobe Illustrator 12.0.0, SVG Export Plug-In . SVG Version: 6.00 Build 51448)  -->
<!DOCTYPE svg PUBLIC "-//W3C//DTD SVG 1.1//EN" "http://www.w3.org/Graphics/SVG/1.1/DTD/svg11.dtd" [
	<!ENTITY ns_svg "http://www.w3.org/2000/svg">
	<!ENTITY ns_xlink "http://www.w3.org/1999/xlink">
]>
<svg  version="1.1" id="Layer_1" xmlns="&ns_svg;" xmlns:xlink="&ns_xlink;" width="477.817" height="519.621"
	 viewBox="0 0 477.817 519.621" overflow="visible" enable-background="new 0 0 477.817 519.621" xml:space="preserve">
<symbol  id="New_Symbol" viewBox="-10.711 -10.711 21.422 21.422">
	<path stroke="#000000" d="M10.211,0c0-5.64-4.572-10.211-10.211-10.211S-10.211-5.64-10.211,0c0,5.639,4.572,10.211,10.211,10.211
		S10.211,5.639,10.211,0z"/>
</symbol>
<symbol  id="New_Symbol_1" viewBox="-10.711 -10.711 21.422 21.422">
	<g>
		<path fill="#EF3B39" stroke="#EF3B39" d="M10.211,0c0-5.64-4.572-10.211-10.211-10.211S-10.211-5.64-10.211,0
			c0,5.639,4.572,10.211,10.211,10.211S10.211,5.639,10.211,0z"/>
	</g>
</symbol>
<line fill="none" stroke="#000000" stroke-width="6" x1="10.575" y1="506.81" x2="242.97" y2="264.558"/>
<line fill="none" stroke="#000000" stroke-width="6" x1="242.97" y1="130.754" x2="135.927" y2="13.853"/>
<line fill="none" stroke="#000000" stroke-width="6" x1="365.504" y1="132.163" x2="465.504" y2="13.853"/>
<line fill="none" stroke="#000000" stroke-width="6" x1="365.504" y1="261.742" x2="465.504" y2="394.134"/>
<rect x="247.195" y="134.979" fill="none" stroke="#000000" stroke-width="6" width="118.31" height="126.761"/>
<use xlink:href="#New_Symbol"  width="21.422" height="21.422" x="-10.711" y="-10.711" transform="matrix(1 0 0 -1 467.106 10.7109)"/>
<use xlink:href="#New_Symbol"  width="21.422" height="21.422" x="-10.711" y="-10.711" transform="matrix(1 0 0 -1 366.1724 132.3125)" enable-background="new    "/>
<use xlink:href="#New_Symbol"  width="21.422" height="21.422" x="-10.711" y="-10.711" transform="matrix(1 0 0 -1 464.1079 390.3765)" enable-background="new    "/>
<use xlink:href="#New_Symbol"  width="21.422" height="21.422" x="-10.711" y="-10.711" transform="matrix(1 0 0 -1 126.1196 386.3901)" enable-background="new    "/>
<use xlink:href="#New_Symbol"  width="21.422" height="21.422" x="-10.711" y="-10.711" transform="matrix(1 0 0 -1 10.7109 508.9097)" enable-background="new    "/>
<use xlink:href="#New_Symbol"  width="21.422" height="21.422" x="-10.711" y="-10.711" transform="matrix(1 0 0 -1 139.2109 14.7109)" enable-background="new    "/>
<use xlink:href="#New_Symbol_1"  width="21.422" height="21.422" x="-10.711" y="-10.711" transform="matrix(1 0 0 -1 246.5278 134.3125)"/>
<use xlink:href="#New_Symbol_1"  width="21.422" height="21.422" x="-10.711" y="-10.711" transform="matrix(1 0 0 -1 247.1958 261.7407)" enable-background="new    "/>
<use xlink:href="#New_Symbol_1"  width="21.422" height="21.422" x="-10.711" y="-10.711" transform="matrix(1 0 0 -1 365.5044 261.7407)" enable-background="new    "/>
<rect x="-45.591" y="-50.69" fill="none" width="565" height="613"/>
</svg>
